
<svg id="Layer_1" data-name="Layer 1" xmlns="http://www.w3.org/2000/svg" viewBox="0 0 79.89 84.61"><defs><style>.cls-1{fill:#fff;}</style></defs><title>rwhite</title><path class="cls-1" d="M39.67,0h1a7.36,7.36,0,0,1,3.48,1.05A11.59,11.59,0,0,1,47,3.71c.71.87,1.38,1.77,2.14,2.6,1.74,1.95,3.61,3.78,5.42,5.67a87.62,87.62,0,0,1,9.57,0,16.28,16.28,0,0,1,3.86.77,7.45,7.45,0,0,1,2.92,1.79,7.45,7.45,0,0,1,1.9,4.66,37.33,37.33,0,0,1-.49,6.92A32.26,32.26,0,0,0,72,31.07a6.53,6.53,0,0,0,.7,1c1.66,2.07,3.62,3.89,5.14,6.07a10.35,10.35,0,0,1,2.1,5.25v.78a6.9,6.9,0,0,1-1.64,4.12,9.34,9.34,0,0,1-6.58,3.07q0,7.81,0,15.62c0,3.4.33,6.8.12,10.2a13.46,13.46,0,0,1-.94,4.5,4.75,4.75,0,0,1-2.13,2.38A5.88,5.88,0,0,1,62,82.89c-1.93-1.72-3.34-3.91-5.08-5.81q-4.1-4.62-8.24-9.2c-4.19-4.61-8.4-9.21-12.73-13.68A29.68,29.68,0,0,0,36,62a35.42,35.42,0,0,1,.23,6.1A6,6,0,0,1,35,71.39a4.11,4.11,0,0,1-2.25,1.29A6.26,6.26,0,0,1,29,72.47a3.71,3.71,0,0,1-2.18-2.2,11.42,11.42,0,0,1-.4-3.28c0-1.64.09-3.28.15-4.92.06-1.28.05-2.56.05-3.83V51.52c0-1.69,0-3.38,0-5.06-.12-3.92-.38-7.85-.26-11.77a23.57,23.57,0,0,1,.48-4.37,4.69,4.69,0,0,1,.84-1.92,3.62,3.62,0,0,1,1.72-.89A17.59,17.59,0,0,1,32.51,27a73.07,73.07,0,0,1,9.2,0,46.19,46.19,0,0,1,5.77.54A14.47,14.47,0,0,1,54,30.23a11.81,11.81,0,0,1,3.45,4.68,13.93,13.93,0,0,1,1,7.72A13.14,13.14,0,0,1,53,51.47a12.62,12.62,0,0,1-6,2.14c1.83,2.16,3.76,4.23,5.71,6.27C56.23,63.62,59.92,67.26,63.5,71c.65-9.17.08-18.36.28-27.54h7.59a1.61,1.61,0,0,0-.24-1.05A8.46,8.46,0,0,0,70,41.05c-2-2.33-4.42-4.35-6.27-6.84.51-4.67.74-9.37.84-14.06a31.79,31.79,0,0,0-5.11-.32c-2.76,0-5.52.16-8.29,0-.18,0-.29-.19-.42-.29-4-3.49-7-7.91-10.91-11.52-7,7.79-14,15.54-21.07,23.3-1.77,2-3.54,3.93-5.35,5.87a48,48,0,0,0-5.05,6.23h7.85q0,16.59,0,33.18H37.54c1,0,1.92,0,2.87,0a41.39,41.39,0,0,1,4.65-.17,4,4,0,0,1,2.06.59,10.68,10.68,0,0,1,2.36,2.62,11.45,11.45,0,0,0,2.16,2.51,19.07,19.07,0,0,0,1.8,1.14,4.41,4.41,0,0,1,1.34,1.25H25c-1.69,0-3.37,0-5.06,0a31.93,31.93,0,0,1-5.41-.38,9,9,0,0,1-3.47-1.33,6.09,6.09,0,0,1-2.17-2.72,14,14,0,0,1-.8-5.06c0-2.51.18-5,.25-7.52,0-1.3,0-2.6,0-3.9q0-6,0-12a11.3,11.3,0,0,1-3.53-1.07,8.78,8.78,0,0,1-4.25-4.2A7.93,7.93,0,0,1,.2,41.52a5.9,5.9,0,0,1,.69-1.95,20.39,20.39,0,0,1,2.19-2.73C5,34.71,7,32.55,8.92,30.42,15.13,23.61,21.39,16.85,27.53,10c2.14-2.45,4-5.16,6.39-7.37A10.69,10.69,0,0,1,37.11.47,8.65,8.65,0,0,1,39.67,0m-.84,35.93a16.42,16.42,0,0,1-2.87,0c0,3.83,0,7.67,0,11.5,2.23-.12,4.47.06,6.7,0a7.56,7.56,0,0,0,3.91-1.05,5.13,5.13,0,0,0,2-3.14,6.64,6.64,0,0,0-.44-4.2A5.21,5.21,0,0,0,46,36.59a6.35,6.35,0,0,0-2.38-.68,30.77,30.77,0,0,0-4.82,0Z" transform="translate(0)"/></svg>